inDegrees=yes
name=ik_S40_A04_T02
DataType=double
version=3
OpenSimVersion=4.3-2021-08-27-4bc7ad9
endheader
time	pelvis_tilt	pelvis_list	pelvis_rotation	pelvis_tx	pelvis_ty	pelvis_tz	hip_flexion_r	hip_adduction_r	hip_rotation_r	knee_angle_r	knee_angle_r_beta	ankle_angle_r	subtalar_angle_r	mtp_angle_r	hip_flexion_l	hip_adduction_l	hip_rotation_l	knee_angle_l	knee_angle_l_beta	ankle_angle_l	subtalar_angle_l	mtp_angle_l	lumbar_extension	lumbar_bending	lumbar_rotation	arm_flex_r	arm_add_r	arm_rot_r	elbow_flex_r	pro_sup_r	wrist_flex_r	wrist_dev_r	arm_flex_l	arm_add_l	arm_rot_l	elbow_flex_l	pro_sup_l	wrist_flex_l	wrist_dev_l
8.699999999999903	-17.18896707267841	-13.64796893680148	40.01423572778226	0	0.9399999999999999	0	36.4105962190081	-12.77099266599138	-11.1619503021038	13.3152894735573	0.2323956421697174	0	0	0	35.38815456103274	-7.537722775309677	-12.66309718500069	9.878120401375488	0.1724057249124261	0	0	0	0	0	0	35.01184056568312	-35.01184056568312	4.78762032226174	85.53114950676304	85.21237994504779	0	0	35.01184056568312	-35.01184056568312	4.78762032226174	85.53114950676304	85.212379945012	0	0
8.719999999999903	-17.92974309532291	-14.06257138001132	39.95501564629253	0	0.9399999999999999	0	38.37632163816452	-12.90650998371046	-10.84083277268372	15.01906548704813	0.2621321433216357	0	0	0	37.08070559516072	-7.337329529166262	-12.32592894864188	10.91493178537746	0.1905014972854197	0	0	0	0	0	0	35.01461009265726	-35.01461009265726	4.787737368822401	85.53085677258335	85.21226289849155	0	0	35.01461009265726	-35.01461009265726	4.787737368822401	85.53085677258335	85.21226289845576	0	0
8.739999999999903	-18.72817716659818	-14.50628808606036	39.826631272029	0	0.9399999999999999	0	40.42287261769633	-13.12787027965235	-10.73846169284503	16.57870982760306	0.2893530722244148	0	0	0	39.80619598091333	-7.162406631932702	-12.18415594714551	12.53587480421561	0.2187922899513619	0	0	0	0	0	0	35.01875735634087	-35.01875735634087	4.787913546479133	85.53041615100963	85.21208672084141	0	0	35.01875735634087	-35.01875735634087	4.787913546479133	85.53041615100963	85.21208672080562	0	0
8.759999999999902	-19.46809160848819	-14.90485610143186	39.79570159672924	0	0.9399999999999999	0	42.33481475968775	-13.32315902156082	-10.96863180319943	17.86003627560446	0.3117164375349232	0	0	0	41.65910807441355	-6.850676480797177	-11.94909199003708	13.91408949241059	0.2428466740597114	0	0	0	0	0	0	35.02142939937834	-35.02142939937834	4.788026885223984	85.53013269003723	85.21197338210082	0	0	35.02142939937834	-35.02142939937834	4.788026885223984	85.53013269003723	85.21197338206503	0	0
8.779999999999902	-20.15671933626787	-15.27557826781161	39.80708694825105	0	0.9399999999999999	0	44.20392642654756	-13.59121903660232	-11.15617573328297	19.2774151526368	0.3364543656873574	0	0	0	43.48605424160052	-6.69908366221217	-11.14674543236326	15.16728913669792	0.264719134037347	0	0	0	0	0	0	35.02411272106524	-35.02411272106524	4.788140870400014	85.52984761231029	85.21185939692901	0	0	35.02411272106524	-35.02411272106524	4.788140870400014	85.52984761231029	85.21185939689325	0	0
8.799999999999901	-20.88459926460246	-15.64621698670189	39.69925045225014	0	0.9399999999999999	0	46.34075438413568	-13.8001181318025	-10.83474120869178	20.92732463934828	0.3652507185903624	0	0	0	45.31479596262634	-6.568996924532746	-10.56453447518295	16.38452145749518	0.2859638457969511	0	0	0	0	0	0	35.02692795295756	-35.02692795295756	4.788260177200269	85.52954922522329	85.21174009013323	0	0	35.02692795295756	-35.02692795295756	4.788260177200269	85.52954922522329	85.21174009009746	0	0
8.819999999999901	-21.73558018542688	-16.02763956229432	39.47143368273792	0	0.9399999999999999	0	48.55718819666016	-14.0476763156243	-10.48266505792396	22.50167704125314	0.3927283515902831	0	0	0	47.1932172654158	-6.362514321376696	-10.72594988015072	17.5295226251515	0.3059478861117334	0	0	0	0	0	0	35.02967551864261	-35.02967551864261	4.788376430809246	85.52925847422917	85.21162383652856	0	0	35.02967551864261	-35.02967551864261	4.788376430809246	85.52925847422917	85.21162383649288	0	0
8.8399999999999	-22.59295727416358	-16.36695839325209	39.31575478172262	0	0.9399999999999999	0	50.75462788059619	-14.25227384473038	-10.22930058474879	24.63495617914031	0.4299610964105205	0	0	0	49.05256160682377	-6.025614154150928	-10.97278993351057	18.70329980615476	0.3264341626050178	0	0	0	0	0	0	35.03213157908053	-35.03213157908053	4.788480126985426	85.52899912949984	85.21152014035631	0	0	35.03213157908053	-35.03213157908053	4.788480126985426	85.52899912949984	85.21152014032064	0	0
8.8599999999999	-23.29253187338571	-16.691543756014	39.32888697213572	0	0.9399999999999999	0	52.68695662402808	-14.55890589988421	-10.03683346122198	26.09987947383924	0.45552883119218	0	0	0	50.90681967941258	-5.720689352428703	-10.76363410118643	19.97768463013392	0.3486763737209024	0	0	0	0	0	0	35.03509019053913	-35.03509019053913	4.78860543674163	85.52868572901473	85.21139483060473	0	0	35.03509019053913	-35.03509019053913	4.78860543674163	85.52868572901473	85.21139483056909	0	0
8.8799999999999	-23.89557956674005	-17.01631842195356	39.34496676825363	0	0.9399999999999999	0	54.49477700791775	-14.63513134606072	-10.01017697610273	27.14351828751653	0.4737437646924563	0	0	0	52.83036907585725	-5.524355485057235	-10.26790651820743	21.50099069534986	0.37526308007452	0	0	0	0	0	0	35.03773952475932	-35.03773952475932	4.788717716787858	85.52840491590885	85.21128255056274	0	0	35.03773952475932	-35.03773952475932	4.788717716787858	85.52840491590885	85.21128255052712	0	0
8.899999999999899	-24.39945777366961	-17.35131034841624	39.37251587125876	0	0.9399999999999999	0	56.22368647180104	-14.74929132641576	-10.07288002734679	28.49525015088545	0.4973359363123621	0	0	0	54.66281989136392	-5.270692117750214	-10.11247565606102	23.06381199508206	0.4025394573751441	0	0	0	0	0	0	35.04140118832133	-35.04140118832133	4.788873026896503	85.52801648433088	85.21112724045986	0	0	35.04140118832133	-35.04140118832133	4.788873026896503	85.52801648433088	85.21112724042426	0	0
8.919999999999899	-24.90737108120379	-17.72489304846852	39.39889114677293	0	0.9399999999999999	0	56.83234417163158	-14.84528813540378	-10.0761224157575	29.39655267020771	0.5130666328310554	0	0	0	56.5855271525512	-4.967380225688576	-10.11430905681643	24.6450852023358	0.4301378812152926	0	0	0	0	0	0	35.04571888809258	-35.04571888809258	4.789055074871815	85.52756118140979	85.21094519249134	0	0	35.04571888809258	-35.04571888809258	4.789055074871815	85.52756118140979	85.21094519245572	0	0
8.939999999999898	-25.36326120863975	-18.09226950514624	39.36726209962562	0	0.9399999999999999	0	58.57513824769212	-14.85869569468139	-10.03894342166712	30.82229761353179	0.5379505763857204	0	0	0	58.46359720098802	-4.754354566026316	-9.939848956819899	26.27801260617516	0.4586378408583326	0	0	0	0	0	0	35.04837859513478	-35.04837859513478	4.789167634297979	85.52727966962651	85.21083263306939	0	0	35.04837859513478	-35.04837859513478	4.789167634297979	85.52727966962651	85.21083263303377	0	0
8.959999999999898	-25.59518484769447	-18.27037701002442	39.31724480226773	0	0.9399999999999999	0	58.82638705422679	-14.91824601668245	-10.20380901128614	31.08929811060825	0.5426106141641662	0	0	0	60.00264848468448	-4.460109443797801	-9.925111880215416	28.35819013280816	0.4949437877240704	0	0	0	0	0	0	35.05050793354388	-35.05050793354388	4.789257593255623	85.52705468178081	85.21074267411518	0	0	35.05050793354388	-35.05050793354388	4.789257593255623	85.52705468178081	85.21074267407957	0	0
8.979999999999897	-26.28195703241965	-18.71532165207156	38.96946381043109	0	0.9399999999999999	0	62.10839198155524	-14.76388929552195	-9.904671606703991	33.43970898854192	0.5836330227587994	0	0	0	61.92645391804058	-4.215340790578313	-10.42273848374077	29.41629168040405	0.5134111435500661	0	0	0	0	0	0	35.13489847067143	-35.13489847067143	4.792286271710128	85.51948004116326	85.20771399576991	0	0	35.13489847067143	-35.13489847067143	4.792286271710128	85.51948004116326	85.20771399573481	0	0
8.999999999999897	-26.51776774428984	-18.82484022059896	38.79193662836236	0	0.9399999999999999	0	63.5832100134714	-14.69746107288537	-9.940073962843895	35.02984014429026	0.6113860469651506	0	0	0	63.37992147095228	-4.126215716578992	-10.35500512420066	31.35972604858529	0.5473304720712446	0	0	0	0	0	0	35.13720368062098	-35.13720368062098	4.792383311141764	85.51923734519544	85.20761695634194	0	0	35.13720368062098	-35.13720368062098	4.792383311141764	85.51923734519544	85.20761695630674	0	0
9.019999999999897	-26.93241970858335	-18.99216165420499	38.4721466102902	0	0.9399999999999999	0	65.20239408071173	-14.37903697243672	-9.675439694586402	36.43349575997217	0.6358844590229081	0	0	0	65.02422605642303	-4.181993950306302	-10.23074555594283	32.93625512178927	0.5748460951520687	0	0	0	0	0	0	35.14002944626481	-35.14002944626481	4.792502248605319	85.51893988217982	85.20749801888283	0	0	35.14002944626481	-35.14002944626481	4.792502248605319	85.51893988217982	85.20749801884763	0	0
9.039999999999896	-27.43460765241702	-19.15720022869073	38.10611218286422	0	0.9399999999999999	0	66.87154093780775	-14.05096522847511	-9.001518733688922	37.78891566465029	0.6595409991066089	0	0	0	66.59566467911701	-4.057553591691616	-10.83241200901175	34.29515460546548	0.5985633653458694	0	0	0	0	0	0	35.14272224954298	-35.14272224954298	4.79261545287155	85.51865675794183	85.20738481462088	0	0	35.14272224954298	-35.14272224954298	4.79261545287155	85.51865675794183	85.20738481458568	0	0
9.059999999999896	-27.9548498779834	-19.28679646807577	37.77350126131292	0	0.9399999999999999	0	68.52163886210789	-13.82465239331503	-8.520778513173187	39.11528240684861	0.6826904658469205	0	0	0	68.09956809314853	-3.870548531160007	-11.45546521007519	35.47630565283841	0.6191783400859067	0	0	0	0	0	0	35.14577518075851	-35.14577518075851	4.792743864138774	85.51833560093986	85.20725640335854	0	0	35.14577518075851	-35.14577518075851	4.792743864138774	85.51833560093986	85.20725640332333	0	0
9.079999999999895	-28.46302104046353	-19.3368601554652	37.52078326495833	0	0.9399999999999999	0	70.25733310554307	-13.66046586829433	-7.837328950487486	40.42721439942091	0.7055879986795569	0	0	0	69.5418625165895	-3.586930669987907	-11.88007248814385	36.68765781016351	0.6403204236323661	0	0	0	0	0	0	35.14846096063931	-35.14846096063931	4.792856757026405	85.51805325547618	85.20714351047508	0	0	35.14846096063931	-35.14846096063931	4.792856757026405	85.51805325547618	85.20714351043989	0	0
9.099999999999895	-28.91264897964519	-19.36903153877835	37.45357672126147	0	0.9399999999999999	0	71.93559803520947	-13.51695243909073	-7.056983710583234	41.91985385353027	0.731639471698936	0	0	0	71.04359866146126	-3.359403774313367	-12.4062253514285	38.00006006595452	0.6632261641065199	0	0	0	0	0	0	35.15144175528191	-35.15144175528191	4.79298222158417	85.51773946820258	85.20701804592198	0	0	35.15144175528191	-35.15144175528191	4.79298222158417	85.51773946820258	85.20701804588693	0	0
9.119999999999894	-29.29259956262417	-19.39312974254907	37.50601900111034	0	0.9399999999999999	0	73.47364691913856	-13.49501773667386	-6.329777586094294	43.28707806384513	0.7555020357819097	0	0	0	72.60749693072924	-3.034210743189277	-12.46082389486947	39.54704631722062	0.6902261676741976	0	0	0	0	0	0	35.15447792327677	-35.15447792327677	4.793109907439956	85.5174201254825	85.206890360071	0	0	35.15447792327677	-35.15447792327677	4.793109907439956	85.5174201254825	85.20689036003596	0	0
